<svg xmlns="http://www.w3.org/2000/svg" version="1.1" xmlns:xlink="http://www.w3.org/1999/xlink" xmlns:svgjs="http://svgjs.dev/svgjs" width="1000" height="925" viewBox="0 0 1000 925"><g transform="matrix(1,0,0,1,-0.5764419803560941,0.3751854750255461)"><svg viewBox="0 0 267 247" data-background-color="#111111" preserveAspectRatio="xMidYMid meet" height="925" width="1000" xmlns="http://www.w3.org/2000/svg" xmlns:xlink="http://www.w3.org/1999/xlink"><g id="tight-bounds" transform="matrix(1,0,0,1,0.15404198646041323,-0.09997365579206985)"><svg viewBox="0 0 266.6919278338279 247.2" height="247.2" width="266.6919278338279"><g><svg viewBox="0 0 266.6919278338279 247.2" height="247.2" width="266.6919278338279"><g><svg viewBox="0 0 266.6919278338279 247.2" height="247.2" width="266.6919278338279"><g id="textblocktransform"><svg viewBox="0 0 266.6919278338279 247.2" height="247.2" width="266.6919278338279" id="textblock"><g><svg viewBox="0 0 266.6919278338279 247.2" height="247.2" width="266.6919278338279"><path d="M266.068 53.02C264.814 27.36 261.241 20.227 261.241 20.227 250.27-6.202 236.579-0.506 224.279 3.292 202.564 3.446 180.936 9.091 159.271 12.119 113.796 12.581 67.933 4.986 22.685 23.717 18.434 29.464-4.41 24.846 0.756 56.304 2.11 69.39 7.05 83.913 6.9 95.922 7.577 98.026 8.517 93.202 8.918 96.23 10.322 104.39 12.617 100.541 14.497 105.365 11.877 118.246 13.758 128.971 15.551 140.21 12.391 143.135 8.341 141.749 6.523 151.449 6.335 158.479 5.32 157.145 4.204 156.837 3.389 156.632 1.747 157.402 2.022 159.608 2.963 167.152-1.074 171.514 1.458 178.904-0.285 186.91 2.662 193.838 2.261 202.511 2.21 204.255 2.486 205.744 2.925 206.154 4.868 208.361 2.035 212.672 2.336 217.342 22.271 249.262 43.898 227.195 64.322 241.872 69.626 231.608 65.639 245.516 67.758 243.36 69.413 240.846 70.616 251.263 72.485 245.362 72.773 243.668 72.334 239.665 73.362 240.435 73.901 240.846 74.378 240.743 74.453 238.382 74.566 234.841 73.575 237.048 73.312 235.201 76.158 225.861 75.456 248.081 78.127 247.158 78.001 244.438 77.224 240.538 78.816 241.051 80.396 237.151 80.446 233.918 81.85 242.693 81.9 244.592 82.151 245.926 82.552 246.85 86.941 237.305 91.304 250.237 95.905 245.926 98.726 241.205 101.434 248.492 104.293 246.696 105.296 245.259 106.311 242.693 107.277 247.004 119.1 247.928 131.7 244.079 142.909 247.158 172.862 241.41 204.871 249.518 236.453 241.923 243.901 238.998 251.637 234.841 258.896 231.506 258.896 231.506 264.776 222.371 264.776 181.316S266.03 145.393 266.218 112.703C266.406 80.013 267.284 78.679 266.03 53.02Z" opacity="1" fill="#000000" data-fill-palette-color="tertiary"></path><g transform="matrix(1,0,0,1,55.76832,26.230666666666668)"><svg width="155.15528783382788" viewBox="3.5 -33.70000076293945 26.850000381469727 33.70000076293945" height="194.73866666666666" data-palette-color="#ffffff"><path d="M17.8-16.8L30.35 0 22.4 0 10.3-16.7 21.95-33.7 29.5-33.7 17.8-16.8ZM9.8-33.7L9.8 0 3.5 0 3.5-33.7 9.8-33.7Z" opacity="1" transform="matrix(1,0,0,1,0,0)" fill="#ffffff" class="wordmark-text-0" data-fill-palette-color="quaternary" id="text-0"></path></svg></g></svg></g></svg></g></svg></g><g></g></svg></g><defs></defs></svg><rect width="266.6919278338279" height="247.2" fill="none" stroke="none" visibility="hidden"></rect></g></svg></g></svg>